<svg xmlns:xlink="http://www.w3.org/1999/xlink" xmlns="http://www.w3.org/2000/svg" class="inkGroup ink PenStroke" viewBox="0 -19 159 123" overflow="visible" width="159" height="123" tabindex="0" aria-label="Handwriting. Not selected. " aria-describedby="Canvas.Entity.Ink.A11yText-F-F" id="1d401b5d6145d09d9122ce6d8ba3e2d4c511a20e" data-apikey="883510b10b5b05776dccbf8efc7469380cdbb93f">
  <g class="inkStroke interactive" id="fafbcabe6158f567d0fddfb5a61ae04933230db8" transform="matrix(0.0078125, 0, 0, 0.0078125, 0, 0)" data-apikey="__f21d5943659cc2a97104a43a4b1ef42659d9bae2_5560405ee93c117739e98560be51aaf281bbb02e">
    <path d="M135,12907L137,12929A143,143 0 0 0 172,12825L148,12852A145,145 0 0 0 134,12871L110,12909L69,12956A174,174 0 0 0 117,12917L105,12924A199,199 0 0 0 352,13228L367,13210A202,202 0 0 0 392,13172L435,13089A205,205 0 0 0 438,13083L504,12946L637,12715L828,12385A211,211 0 0 0 830,12381L1081,11929L1384,11387L1748,10761L2189,10027L2703,9211L3274,8316A214,214 0 0 0 3275,8314L3845,7403A213,213 0 0 0 3845,7403L4401,6507A213,213 0 0 0 4403,6505L4925,5639A212,212 0 0 0 4925,5639L5428,4805A211,211 0 0 0 5430,4801L5881,4015A210,210 0 0 0 5882,4013L6296,3277A210,210 0 0 0 6299,3270L6646,2596A209,209 0 0 0 6648,2592L6945,1977A208,208 0 0 0 6947,1971L7192,1425A208,208 0 0 0 7192,1425L7387,986L7548,654A207,207 0 0 0 7549,653L7656,429L7736,331A207,207 0 0 0 7543,404L7613,415A207,207 0 0 0 7449,274L7486,390L7507,648L7516,1083L7517,1658A209,209 0 0 0 7517,1663L7535,2360A210,210 0 0 0 7535,2361L7558,3172L7558,4054L7546,4975L7531,5931L7495,6871L7433,7775L7368,8614L7292,9389L7225,10063L7154,10633L7075,11095L6987,11467L6891,11748L6795,11955L6699,12091L6585,12203L6464,12285L6341,12321A86,86 0 0 0 6389,12485L6522,12447L6686,12410A118,118 0 0 0 6714,12400L6878,12316A146,146 0 0 0 6914,12289L7051,12152A163,163 0 0 0 7075,12122L7207,11907A177,177 0 0 0 7219,11883L7342,11592A189,189 0 0 0 7349,11571L7459,11190A198,198 0 0 0 7463,11174L7558,10704A205,205 0 0 0 7560,10691L7640,10115A210,210 0 0 0 7641,10108L7714,9433A212,212 0 0 0 7714,9431L7792,8654A213,213 0 0 0 7792,8649L7857,7806A213,213 0 0 0 7857,7804L7919,6896A213,213 0 0 0 7919,6890L7955,5945A212,212 0 0 0 7955,5940L7970,4981A212,212 0 0 0 7970,4980L7980,4057A211,211 0 0 0 7980,4055L7980,3169A211,211 0 0 0 7980,3163L7955,2349L7935,1655L7934,1081A209,209 0 0 0 7934,1076L7923,632A208,208 0 0 0 7922,619L7898,331A208,208 0 0 0 7888,284L7842,146A207,207 0 0 0 7677,6L7607,-4A207,207 0 0 0 7416,69L7320,186A207,207 0 0 0 7294,228L7176,474L7013,808A207,207 0 0 0 7010,814L6813,1255L6568,1798L6273,2408L5929,3074L5516,3806L5065,4589L4563,5420L4040,6284L3483,7177L2913,8087L2342,8981A214,214 0 0 0 2341,8982L1826,9801A214,214 0 0 0 1824,9805L1381,10543A213,213 0 0 0 1379,10546L1015,11175A213,213 0 0 0 1013,11179L711,11723A212,212 0 0 0 710,11724L462,12176L274,12507A209,209 0 0 0 274,12508L139,12748A207,207 0 0 0 130,12765L66,12912A205,205 0 0 0 65,12913L29,12995L21,13012A199,199 0 0 0 295,12924L283,12917A174,174 0 0 0 373,13073L374,13036L382,13023L399,12997A143,143 0 0 0 421,12929L423,12907A144,144 0 1 0 135,12907" fill="#1F1F1F" opacity=""/>
    <polyline class="inkHitTestOverlay" stroke-linecap="round" stroke-width="2048px" points="279,12897 279,12919 257,12948 228,12997 200,13070 200,13099 213,13079 253,12995 320,12849 646,12279 896,11826 1199,11282 1564,10653 2007,9915 2522,9096 3094,8201 3664,7290 4221,6395 5247,4696 5699,3910 6113,3174 6460,2501 6757,1886 7199,899 7362,564 7480,317 7576,200 7646,211 7691,349 7715,637 7725,1081 7726,1658 7745,2355 7769,3169 7769,4055 7758,4978 7743,5937 7707,6882 7645,7790 7580,8633 7503,9410 7433,10086 7357,10663 7269,11135 7168,11519 7056,11814 6936,12037 6811,12186 6660,12295 6501,12364 6365,12403 " stroke="#008000" fill="none" stroke-opacity="0"/>
  </g>
  <g class="inkStroke interactive" id="344f2842a2fd7683674a637be0c645ada7477842" transform="matrix(0.0078125, 0, 0, 0.0078125, 0, 0)" data-apikey="__f21d5943659cc2a97104a43a4b1ef42659d9bae2_833351d0a95b7eab83e5dcf50004139edc2f30ff">
    <path d="M3961,10877L3939,10856A141,141 0 0 0 3915,10837L3868,10807L3798,10759L3703,10686A150,150 0 0 0 3695,10680L3585,10606L3483,10530L3417,10450L3392,10402L3392,10373L3413,10318L3493,10227L3663,10071L3932,9872L4273,9640L4679,9367A212,212 0 0 0 4681,9366L5132,9056L5637,8736L6175,8398L6739,8043L7330,7694A198,198 0 0 0 7332,7693L7923,7338A187,187 0 0 0 7924,7337L8521,6973A175,175 0 0 0 8521,6973L9104,6617A159,159 0 0 0 9108,6615L9668,6255A137,137 0 0 0 9669,6255L10207,5906A112,112 0 0 0 10211,5903L10708,5553L11114,5277A86,86 0 0 0 11018,5135L10613,5409L10091,5714L9529,6019A137,137 0 0 0 9527,6020L8946,6343L8346,6669A175,175 0 0 0 8344,6670L7734,7014L7133,7352L6532,7689A205,205 0 0 0 6525,7693L5954,8041A210,210 0 0 0 5952,8042L5412,8377A212,212 0 0 0 5411,8378L4902,8699A213,213 0 0 0 4894,8704L4441,9016L4036,9292A211,211 0 0 0 4035,9293L3692,9530A209,209 0 0 0 3684,9536L3407,9748A206,206 0 0 0 3390,9763L3206,9938A204,204 0 0 0 3189,9957L3084,10086A201,201 0 0 0 3051,10146L3007,10270A198,198 0 0 0 2997,10348L3005,10463A194,194 0 0 0 3033,10552L3098,10656A190,190 0 0 0 3162,10719L3285,10792A165,165 0 0 0 3288,10794L3419,10867L3532,10931L3631,10998A146,146 0 0 0 3637,11002L3717,11050A143,143 0 0 0 3724,11054L3759,11072L3768,11080A140,140 0 0 0 3961,10877" fill="#1F1F1F" opacity=""/>
    <polyline class="inkHitTestOverlay" stroke-linecap="round" stroke-width="2048px" points="3863,10977 3841,10956 3790,10927 3712,10877 3611,10804 3495,10732 3369,10650 3259,10556 3198,10450 3194,10335 3240,10212 3347,10085 3532,9912 3811,9702 4155,9466 4561,9191 5015,8879 5524,8557 6063,8220 6632,7868 7230,7524 7826,7177 8430,6823 9022,6482 9594,6140 10146,5812 10659,5482 11066,5206 " stroke="#008000" fill="none" stroke-opacity="0"/>
  </g>
  <g class="inkStroke interactive" id="8434d6f9330cad6518ccda03a08de7ffbdc1b21b" transform="matrix(0.0078125, 0, 0, 0.0078125, 0, 0)" data-apikey="__f21d5943659cc2a97104a43a4b1ef42659d9bae2_2818992426fd73fd401454250d150134115e7821">
    <path d="M9886,1118L9854,1117L9766,1096A136,136 0 0 0 9762,1095L9605,1063A139,139 0 0 0 9599,1061L9399,1029A144,144 0 0 0 9392,1028L9160,1002A148,148 0 0 0 9143,1001L8912,1001A154,154 0 0 0 8904,1002L8670,1015A159,159 0 0 0 8667,1016L8449,1032A165,165 0 0 0 8431,1034L8236,1070A171,171 0 0 0 8230,1072L8085,1104L8006,1097A203,203 0 0 0 8108,1136L8073,1110A208,208 0 0 0 8074,1443L8134,1398L8315,1301L8645,1147L9123,947A224,224 0 0 0 9124,947L9724,696L10411,418L11176,131L11962,-156L12750,-437L13516,-689L14250,-929L14929,-1142L15531,-1329A225,225 0 0 0 15534,-1329L16036,-1492L16448,-1616A222,222 0 0 0 16450,-1616L16788,-1721L17055,-1799A219,219 0 0 0 17074,-1805L17260,-1878A218,218 0 0 0 17267,-1881L17397,-1937L17455,-1958A212,212 0 0 0 17227,-2301L17206,-2277L17122,-2193L16954,-2024A210,210 0 0 0 16948,-2018L16703,-1751A210,210 0 0 0 16698,-1746L16390,-1387L16016,-958A210,210 0 0 0 16011,-953L15603,-452A210,210 0 0 0 15599,-446L15155,137A210,210 0 0 0 15151,142L14699,774A211,211 0 0 0 14697,778L14232,1458A212,212 0 0 0 14228,1464L13768,2183A213,213 0 0 0 13766,2187L13323,2911A214,214 0 0 0 13318,2920L12915,3656A215,215 0 0 0 12912,3661L12532,4408A216,216 0 0 0 12529,4413L12181,5146A217,217 0 0 0 12177,5156L11882,5867A218,218 0 0 0 11879,5873L11619,6561A219,219 0 0 0 11619,6561L11375,7208A219,219 0 0 0 11374,7211L11158,7814A220,220 0 0 0 11157,7817L10971,8359A220,220 0 0 0 10970,8361L10808,8847L10664,9266A222,222 0 0 0 10661,9273L10552,9628L10455,9913A222,222 0 0 0 10455,9916L10384,10135L10316,10307A222,222 0 0 0 10316,10308L10260,10451L10225,10533A215,215 0 0 0 10318,10429L10292,10444A216,216 0 0 0 10592,10724L10601,10705A218,218 0 0 0 10601,10704L10623,10658L10657,10600L10705,10545L10795,10477L10962,10385L11226,10257L11579,10111A229,229 0 0 0 11584,10109L12558,9679A224,224 0 0 0 12564,9676L13147,9399A218,218 0 0 0 13150,9397L13792,9077L14505,8726L15284,8352L16114,7962L16979,7582L17864,7198L18715,6829A120,120 0 0 0 18715,6829L19509,6480L20151,6229A86,86 0 0 0 20089,6069L19446,6321L18627,6605A120,120 0 0 0 18626,6606L17754,6921A149,149 0 0 0 17752,6922L16849,7265A171,171 0 0 0 16846,7266L15968,7621A186,186 0 0 0 15962,7623L15121,7996A196,196 0 0 0 15119,7997L14331,8358A204,204 0 0 0 14329,8358L13608,8697A211,211 0 0 0 13607,8697L12961,9004L12378,9269L11402,9688L11044,9836A229,229 0 0 0 11031,9842L10756,9977A228,228 0 0 0 10745,9983L10559,10088A227,227 0 0 0 10527,10110L10410,10206A225,225 0 0 0 10378,10238L10305,10327A222,222 0 0 0 10281,10363L10234,10451A220,220 0 0 0 10222,10477L10200,10535A218,218 0 0 0 10192,10562L10187,10583A216,216 0 0 0 10507,10817L10533,10802A215,215 0 0 0 10610,10723L10656,10643A220,220 0 0 0 10668,10617L10727,10471A222,222 0 0 0 10727,10471L10799,10293A222,222 0 0 0 10804,10278L10877,10053L10973,9767A222,222 0 0 0 10975,9761L11084,9406L11226,8990A221,221 0 0 0 11227,8987L11388,8501L11573,7960L11786,7360L12028,6715L12286,6030L12576,5327L12918,4601L13294,3859L13692,3130L14129,2411L14584,1695L15044,1017L15491,389L15931,-189L16335,-685L16706,-1113A210,210 0 0 0 16707,-1113L17014,-1469L17255,-1730L17420,-1895L17507,-1981A211,211 0 0 0 17507,-1982L17533,-2007A212,212 0 0 0 17338,-2364L17271,-2349A216,216 0 0 0 17235,-2338L17101,-2284L16925,-2217L16665,-2144A220,220 0 0 0 16662,-2143L16321,-2040L15907,-1919A223,223 0 0 0 15902,-1918L15398,-1757L14796,-1574A226,226 0 0 0 14795,-1574L14114,-1362A227,227 0 0 0 14111,-1361L13375,-1123A228,228 0 0 0 13374,-1122L12605,-870A228,228 0 0 0 12599,-868L11807,-586A228,228 0 0 0 11806,-585L11019,-297A228,228 0 0 0 11017,-297L10248,-7A228,228 0 0 0 10242,-4L9552,278A226,226 0 0 0 9550,279L8949,535A224,224 0 0 0 8948,536L8469,742A221,221 0 0 0 8459,747L8122,912A217,217 0 0 0 8109,919L7912,1034A213,213 0 0 0 7873,1063L7807,1125A208,208 0 0 0 7865,1467L7905,1485A203,203 0 0 0 8064,1487L8155,1450L8312,1402L8491,1358L8697,1332L8925,1308L9141,1298L9362,1314L9558,1337L9711,1362L9812,1380A133,133 0 0 0 9842,1382L9886,1380A131,131 0 0 0 9886,1118" fill="#1F1F1F" opacity=""/>
    <polyline class="inkHitTestOverlay" stroke-linecap="round" stroke-width="2048px" points="9879,1249 9835,1249 9734,1228 9577,1199 9376,1171 9143,1149 8913,1155 8679,1174 8461,1196 8267,1238 8096,1283 7987,1299 7949,1277 8019,1218 8218,1107 8556,945 9638,487 10328,206 11097,-83 11884,-371 12676,-653 13445,-906 14181,-1145 14862,-1358 15465,-1543 15970,-1705 16384,-1828 16725,-1932 16994,-2009 17181,-2081 17317,-2138 17383,-2157 17103,-1876 16857,-1609 16548,-1250 16174,-820 15766,-319 15322,264 14871,897 14407,1578 13948,2298 13506,3023 13104,3759 12724,4506 12377,5239 12083,5950 11823,6638 11580,7285 11365,7888 11179,8431 11017,8918 10873,9338 10763,9696 10666,9984 10593,10210 10464,10534 10423,10617 10397,10632 10404,10612 10428,10555 10477,10468 10552,10380 10671,10286 10857,10182 11132,10048 11491,9899 12468,9474 13053,9202 13698,8888 14416,8543 15200,8175 16037,7793 16910,7425 17805,7061 18667,6719 20120,6149 " stroke="#008000" fill="none" stroke-opacity="0"/>
  </g>
</svg>
